<?xml version="1.0" encoding="UTF-8" standalone="no"?>
<svg xmlns="http://www.w3.org/2000/svg" viewBox="0 0 400 400">
  <!-- Main Track Path -->
  <path id="track-path" 
        d="M 30,50 L 60,30 L 100,20 L 140,30 L 160,50 L 180,80 L 190,120 L 180,160 L 150,190 L 100,200 L 50,180 L 30,150 L 40,120 L 70,110 L 100,120 L 120,140 L 130,170 L 120,190 L 90,190 L 60,170 L 50,140 L 60,110 L 90,90 L 130,90 L 160,110 L 170,140 L 160,170 L 130,180 L 90,170 L 70,140 L 80,110 L 100,100 L 130,110 L 140,130 L 130,150 L 100,150 L 80,130 L 90,100"
        fill="none"
        stroke="#6B7280"
        stroke-width="8"
        stroke-linecap="round"
        stroke-linejoin="round"/>
  
  <!-- Sector 1 -->
  <path id="sector-1"
        d="M 30,50 L 60,30 L 100,20 L 140,30 L 160,50"
        fill="none"
        stroke="#4CAF50"
        stroke-width="2"
        stroke-opacity="0.6"
        stroke-linecap="round"
        stroke-linejoin="round"/>
  
  <!-- Sector 2 -->
  <path id="sector-2"
        d="M 160,50 L 180,80 L 190,120 L 180,160 L 150,190"
        fill="none"
        stroke="#FFC107"
        stroke-width="2"
        stroke-opacity="0.6"
        stroke-linecap="round"
        stroke-linejoin="round"/>
  
  <!-- Sector 3 -->
  <path id="sector-3"
        d="M 150,190 L 100,200 L 50,180 L 30,150 L 40,120"
        fill="none"
        stroke="#F44336"
        stroke-width="2"
        stroke-opacity="0.6"
        stroke-linecap="round"
        stroke-linejoin="round"/>
  
  <!-- DRS Zones -->
  <path id="drs-zone-1"
        d="M 100,20 L 140,30"
        stroke="#22D3EE"
        stroke-width="3"
        stroke-dasharray="4,4"
        stroke-opacity="0.8"/>
  
  <path id="drs-zone-2"
        d="M 30,150 L 40,120"
        stroke="#22D3EE"
        stroke-width="3"
        stroke-dasharray="4,4"
        stroke-opacity="0.8"/>
  
  <!-- Corner Markers -->
  <circle id="corner-parabolica" cx="40" cy="120" r="4" fill="#F59E0B" opacity="0.7"/>
  <circle id="corner-lesmo1" cx="180" cy="80" r="4" fill="#F59E0B" opacity="0.7"/>
  <circle id="corner-lesmo2" cx="190" cy="120" r="4" fill="#F59E0B" opacity="0.7"/>
  <circle id="corner-ascari" cx="100" cy="200" r="4" fill="#F59E0B" opacity="0.7"/>
  <circle id="corner-variante" cx="60" cy="30" r="4" fill="#F59E0B" opacity="0.7"/>
</svg>
