<?xml version="1.0" encoding="UTF-8"?>
<svg width="24px" height="24px" viewBox="0 0 24 24" version="1.1" xmlns="http://www.w3.org/2000/svg">
    <g stroke="none" stroke-width="1" fill="none" fill-rule="evenodd">
        <g id="drag-handle" fill="#FFFFFF" opacity="0.7">
            <path d="M7,4 C5.8954305,4 5,4.8954305 5,6 C5,7.1045695 5.8954305,8 7,8 C8.1045695,8 9,7.1045695 9,6 C9,4.8954305 8.1045695,4 7,4 Z M17,4 C15.8954305,4 15,4.8954305 15,6 C15,7.1045695 15.8954305,8 17,8 C18.1045695,8 19,7.1045695 19,6 C19,4.8954305 18.1045695,4 17,4 Z M7,10 C5.8954305,10 5,10.8954305 5,12 C5,13.1045695 5.8954305,14 7,14 C8.1045695,14 9,13.1045695 9,12 C9,10.8954305 8.1045695,10 7,10 Z M17,10 C15.8954305,10 15,10.8954305 15,12 C15,13.1045695 15.8954305,14 17,14 C18.1045695,14 19,13.1045695 19,12 C19,10.8954305 18.1045695,10 17,10 Z M7,16 C5.8954305,16 5,16.8954305 5,18 C5,19.1045695 5.8954305,20 7,20 C8.1045695,20 9,19.1045695 9,18 C9,16.8954305 8.1045695,16 7,16 Z M17,16 C15.8954305,16 15,16.8954305 15,18 C15,19.1045695 15.8954305,20 17,20 C18.1045695,20 19,19.1045695 19,18 C19,16.8954305 18.1045695,16 17,16 Z" id="Shape"></path>
        </g>
    </g>
</svg>
